<svg id="Layer_1" data-name="Layer 1" xmlns="http://www.w3.org/2000/svg" viewBox="0 0 13879.46 4968.29"><defs><style>.cls-1{fill:#232c65;}.cls-2{fill:#fff;}.cls-3{fill:#999;}</style></defs><title>Q LOGO</title><path class="cls-1" d="M3043.37,482.52c-1329.7,0-2407.63,1077.93-2407.63,2407.64,0,1310.31,1046.91,2375.37,2349.81,2406.18v.72H3014c9.84.11,19.56.74,29.42.74s19.41-.63,29.15-.74h2375.8v-2303c1.68-34.45,2.7-69.07,2.7-103.93C5451,1560.45,4373.08,482.52,3043.37,482.52Zm-761,3255.5c-74.2,30.66-837.35-8.76-885.05-61.31s-53.11-266.8-47.7-354.7c3.52-57.06,630.67-13.13,699.57,35S2356.53,3707.37,2282.34,3738ZM2692.2,2425c-274,9.6-548,27.58-820.94,56.05-74.35,7.76-581.5,19.37-605.55,84.29.07-.2,334.51-903.07,582.64-962.48,844.6-205,1709.14-202.47,2553.92,0,248.19,59.49,582.64,962.48,582.64,962.48C4231.86,2425.48,3454.2,2398.33,2692.2,2425ZM4950.34,3676.71c-47.69,52.55-810.85,92-885.05,61.31s164.3-332.8,233.19-381,696-92.09,699.56-35C5003.45,3409.91,4998,3624.17,4950.34,3676.71Z" transform="translate(-635.74 -329.51)"/><path class="cls-2" d="M2049.16,3357c-68.9-48.16-696-92.09-699.57-35-5.41,87.9,0,302.16,47.7,354.7s810.85,92,885.05,61.31S2118.05,3405.22,2049.16,3357Z" transform="translate(-635.74 -329.51)"/><path class="cls-2" d="M4402.27,1602.88c-844.78-202.47-1709.32-205-2553.92,0-248.13,59.41-582.57,962.28-582.64,962.48,24-64.92,531.2-76.53,605.55-84.29,272.94-28.47,546.94-46.45,820.94-56.05,762-26.69,1539.66.46,2292.71,140.34C4984.91,2565.36,4650.46,1662.37,4402.27,1602.88Z" transform="translate(-635.74 -329.51)"/><path class="cls-2" d="M4298.48,3357c-68.89,48.18-307.38,350.33-233.19,381s837.36-8.76,885.05-61.31,53.11-266.8,47.7-354.7C4994.52,3265,4367.38,3308.88,4298.48,3357Z" transform="translate(-635.74 -329.51)"/><path class="cls-3" d="M6965.11,4805.67,7101,4884.1q-45.78,179.71-185,278.71-139.18,98.69-320.14,98.76-237.07,0-380.48-158.91t-143.3-393.11q0-256.83,144-408.55,144.19-152.09,376.1-152.07,204.85,0,344.43,115.56v-98.41h135.07v346.46H6936.61c-30.09-70.15-76.23-124.72-138.83-163.13q-93.81-57.85-197.36-57.72-156.14,0-256.36,116.14-100.12,116.58-100.07,294,0,182.1,107.16,297.71,107.37,115.51,254.53,115.42,120.78,0,219.9-80.18Q6924.64,4954.78,6965.11,4805.67Z" transform="translate(-635.74 -329.51)"/><path class="cls-3" d="M7970.78,5113.53v131h-249.1v-91.39Q7618,5256.84,7490.5,5257q-99,0-172.26-66.68c-48.79-44.36-73.06-101.38-73.06-170.65q0-104.76,77.61-173.67T7510,4776.91q102.06,0,197.5,63.66V4766.2q0-57.33-10.53-88.42c-7-20.87-23.4-39.29-49.28-56q-38.57-24.7-100.87-24.71-107.35,0-155.32,88.41l-136.57-37.38q90.77-175.24,313.65-175.08,81.82,0,141.48,22.82c39.73,15.25,69.46,34.9,88.93,58.92s32.71,50,39.38,78.08c6.85,27.74,10.16,72.29,10.16,133.32v347.33Zm-263.31-148.07q-92.34-74.45-187-74.34-59.18,0-99,35.43-39.71,35.76-39.72,92.42c0,35.1,11.57,64.58,34.9,88.23,23.17,23.87,54.9,35.78,94.9,35.78q103.56,0,195.94-90Z" transform="translate(-635.74 -329.51)"/><path class="cls-3" d="M8170.5,5113.53V4625H8024.1V4494h260.5v168.89c16-43.82,38.24-80.32,66.83-109.09,28.42-29.1,58.58-48.06,90.34-57.36,31.75-9.46,75.09-14,130.17-14h37.53v148.95H8581c-72.53,0-126.73,7.37-162.43,22.43q-53.81,22.36-79.55,81.74-26.05,59.51-25.95,213v165.08h158.39v131H8024.1v-131Z" transform="translate(-635.74 -329.51)"/><path class="cls-3" d="M9175.36,5109.48V4301h-132V4166.08h809.8V4491H9724.05V4301h-391v319.41h337v134.91h-337v354.16h133.58v135.07H9043.37V5109.48Z" transform="translate(-635.74 -329.51)"/><path class="cls-3" d="M10026.47,5113.53V4625H9913.85V4494h255.24v619.56h112.62v131H9913.85v-131Zm-20.25-874.63c0-23.88,8.16-44.39,24.37-61.9,16.23-17.74,36.94-26.51,61.93-26.51,23.59,0,43.77,8.61,60.78,25.63s25.61,37.88,25.61,62.78c0,24.71-8.6,46-25.61,63.17-17,17.36-37.19,25.93-60.78,25.93-24,0-44.28-8.77-61.22-26.32C10014.55,4284.14,10006.22,4263.12,10006.22,4238.9Z" transform="translate(-635.74 -329.51)"/><path class="cls-3" d="M10624,4494v90.66q137.08-102.36,250.58-102.26,70.64,0,116.64,34.55c30.79,23,51,51.05,60.44,84.38,9.65,33.34,14.21,82.12,14.21,146.32v365.91h122.44v131h-264.89V4753.76c0-56.83-8.23-94-24.81-111.22q-24.85-26-60.78-26c-63,0-134.38,31.58-213.83,95.43v401.54h125.24v131h-395.56v-131h127.7V4625h-127.7V4494Z" transform="translate(-635.74 -329.51)"/><path class="cls-3" d="M11989.73,5113.53v131h-249.27v-91.39q-103.38,103.68-231,103.87-98.93,0-172.26-66.68C11288.43,5146,11264,5089,11264,5019.7q0-104.76,77.72-173.67t187.17-69.12q102.1,0,197.33,63.66V4766.2c0-38.22-3.51-67.7-10.33-88.42-7-20.87-23.35-39.29-49.3-56q-38.69-24.7-100.87-24.71-107.34,0-155.42,88.41l-136.48-37.38q90.52-175.24,313.83-175.08,81.55,0,141.2,22.82,60,22.88,89.13,58.92c19.47,24.07,32.44,50,39.29,78.08,6.67,27.74,10,72.29,10,133.32v347.33Zm-263.48-148.07q-92.08-74.45-186.8-74.34-59.22,0-99.12,35.43c-26.32,23.84-39.64,54.7-39.64,92.42,0,35.1,11.57,64.58,34.72,88.23q35,35.8,95.09,35.78,103.68,0,195.75-90Z" transform="translate(-635.74 -329.51)"/><path class="cls-3" d="M12320.93,4494v90.66q137.08-102.36,250.65-102.26c46.85,0,85.79,11.6,116.47,34.55,30.88,23,50.89,51.05,60.54,84.38q14.19,50,14.21,146.32v365.91h122.26v131h-264.71V4753.76c0-56.83-8.4-94-24.91-111.22-16.47-17.36-36.82-26-60.68-26-63.17,0-134.55,31.58-213.83,95.43v401.54h125.24v131h-395.56v-131h127.53V4625h-127.53V4494Z" transform="translate(-635.74 -329.51)"/><path class="cls-3" d="M13633.38,4494V4777.6h-127.53q-9.72-81.3-64.2-124.73c-36.31-28.76-78.4-43.33-126.47-43.33q-96,0-156.13,70.18t-60,184q0,106.29,57.18,187.36,56.83,81,164.89,81,150.26,0,217.68-147.35l117.71,57.36q-97.34,224.18-341.35,224.21-172.6,0-271.55-121.76-99.19-121.82-99.1-280.84,0-169.71,107.87-280.12,108.15-110.55,249.44-110.55,120.53,0,204,73.7V4494Z" transform="translate(-635.74 -329.51)"/><path class="cls-3" d="M14515.2,4906.37h-610.79q13.41,103.89,79.62,168.41,66.06,64.2,168.77,64.35,149.19,0,236.28-124.2l126.12,57.56q-61.31,98.4-159.8,146.12t-205.59,47.72q-166.57,0-284.88-107.37-118.14-107.62-118.05-289.63,0-172.84,114.89-284.7,115.5-111.57,264.71-111.57,146.3,0,265.4,108.94Q14510.55,4690.95,14515.2,4906.37Zm-147-106.84q-15-79.19-79.62-143.16-64.49-63.9-158.24-64c-57,0-105.94,19.29-146.3,57.86-40.7,38.41-65.41,88.26-74.54,149.29Z" transform="translate(-635.74 -329.51)"/><path class="cls-1" d="M8746.58,587.85c0-69.62,23.63-130,71.32-181.3,47.49-51.52,107.85-77,181-77q103.06,0,177.72,74.65,74.64,74.85,74.68,183.69t-74.68,184.67q-74.62,76.25-177.72,76.1-105.39,0-178.81-77.29Q8746.68,694.37,8746.58,587.85Z" transform="translate(-635.74 -329.51)"/><path class="cls-1" d="M8285.8,3144.8v383.13H7502.48v-251.7q-366.45,288.06-702.1,288-212.93,0-352.12-96.4-139.56-96.24-185.48-249.3t-46-493.11V1716.73h-367V1333.64h783.92V2671q0,242.63,13.13,326.61,13.23,83.72,76.8,138.08t160.08,54.43q289.7,0,618.84-285.59V1716.73H7127.22V1333.64h792.14V3144.8Z" transform="translate(-635.74 -329.51)"/><polygon class="cls-1" points="8170.14 2815.28 8170.14 1387.22 7840.92 1387.22 7840.92 1004.13 8587.02 1004.13 8587.02 2815.28 8916.02 2815.28 8916.02 3198.42 7840.92 3198.42 7840.92 2815.28 8170.14 2815.28"/><path class="cls-1" d="M11814.05,1333.64v829.68h-373q-28.64-237.95-187.63-365t-369.65-126.88q-280.91,0-456.5,205.16T10251.69,2415q0,310.65,166.86,547.29,166.59,236.85,482.73,236.91,438.91,0,636.24-430.62l344.63,167.71q-285.41,655.17-998.39,655.07-504.72,0-794.31-355.91Q9799.8,2879.71,9799.84,2415q0-496.67,315.86-819.45,316-323.16,728.45-323.23,353.19,0,596.89,215.38V1333.64Z" transform="translate(-635.74 -329.51)"/><path class="cls-1" d="M12474.51,3144.8V757.73h-381.85V374.85h798.71V2344.67l794.43-655.11h-353.31V1333.64h1174v355.92h-324.69L13385,2374.23l748.37,770.57h373.11v383.13h-546.55L12891.37,2424.09V3144.8h366.44v383.13H12092.66V3144.8Z" transform="translate(-635.74 -329.51)"/></svg>